<?xml version="1.0" encoding="utf-8"?>
<!-- Generator: Adobe Illustrator 16.0.0, SVG Export Plug-In . SVG Version: 6.00 Build 0)  -->
<!DOCTYPE svg PUBLIC "-//W3C//DTD SVG 1.1//EN" "http://www.w3.org/Graphics/SVG/1.1/DTD/svg11.dtd">
<svg version="1.1" id="Layer_1" xmlns="http://www.w3.org/2000/svg" xmlns:xlink="http://www.w3.org/1999/xlink" x="0px" y="0px"
	 width="14px" height="14px" viewBox="0 0 14 14" enable-background="new 0 0 14 14" xml:space="preserve">
<g>
	<path fill-rule="evenodd" clip-rule="evenodd" fill="#50A4EF" d="M7.84,2.26c0.023,0.002,0.04,0.002,0.058,0.006
		c0.079,0.011,0.156,0.005,0.23-0.025c0.084-0.034,0.15-0.092,0.19-0.174C8.367,1.97,8.407,1.87,8.451,1.773
		c0.047-0.106,0.092-0.215,0.145-0.317C8.67,1.307,8.773,1.185,8.906,1.088c0.124-0.092,0.255-0.112,0.398-0.07
		C9.481,1.069,9.647,1.15,9.811,1.237c0.219,0.116,0.434,0.235,0.652,0.351c0.285,0.15,0.574,0.287,0.879,0.384
		c0.171,0.055,0.343,0.095,0.521,0.11c0.23,0.021,0.457,0.002,0.677-0.08c0.093-0.035,0.188-0.067,0.287-0.074
		c0.03-0.001,0.062,0.002,0.091,0.009c0.025,0.004,0.04,0.023,0.037,0.05c-0.003,0.029-0.005,0.063-0.019,0.088
		c-0.034,0.061-0.068,0.123-0.112,0.173c-0.155,0.18-0.346,0.3-0.57,0.354c-0.053,0.012-0.108,0.015-0.162,0.021
		c-0.021,0.002-0.043,0.005-0.069,0.008c0.002,0.024,0.002,0.043,0.005,0.062c0.008,0.05,0,0.077-0.044,0.097
		c-0.048,0.02-0.097,0.038-0.146,0.046c-0.189,0.029-0.374,0.004-0.557-0.053c-0.019-0.006-0.039-0.01-0.063-0.016
		c-0.005,0.036-0.011,0.064-0.013,0.094c-0.016,0.168-0.108,0.26-0.269,0.27c-0.111,0.006-0.22-0.018-0.328-0.049
		c-0.009-0.004-0.02-0.006-0.028-0.01c-0.053-0.017-0.052-0.017-0.076,0.036c-0.017,0.038-0.034,0.075-0.056,0.109
		c-0.083,0.129-0.202,0.171-0.344,0.159C10,3.368,9.902,3.334,9.805,3.303c-0.09-0.028-0.09-0.028-0.138,0.057
		C9.601,3.478,9.486,3.529,9.346,3.506C9.214,3.484,9.094,3.431,8.979,3.361C8.89,3.307,8.891,3.307,8.814,3.382
		C8.773,3.421,8.733,3.46,8.69,3.497C8.637,3.544,8.572,3.565,8.502,3.568c-0.115,0.004-0.225-0.02-0.334-0.051
		c-0.101-0.028-0.2-0.062-0.299-0.096C7.826,3.407,7.824,3.404,7.825,3.356c0.002-0.214,0.006-0.428,0.008-0.641
		c0.003-0.129,0.003-0.26,0.005-0.39C7.838,2.306,7.84,2.287,7.84,2.26z"/>
	<path fill-rule="evenodd" clip-rule="evenodd" fill="#50A4EF" d="M3.713,2.768C3.69,2.773,3.672,2.777,3.654,2.782
		C3.5,2.833,3.341,2.855,3.18,2.847C3.128,2.844,3.075,2.834,3.024,2.821c-0.03-0.005-0.058-0.021-0.085-0.036
		C2.907,2.767,2.894,2.738,2.902,2.699c0.004-0.02,0.005-0.039,0.009-0.064C2.885,2.63,2.865,2.625,2.843,2.624
		C2.522,2.605,2.267,2.45,2.063,2.195C2.033,2.159,2.014,2.112,1.991,2.07C1.984,2.056,1.98,2.039,1.977,2.024
		C1.966,1.961,1.98,1.941,2.039,1.931C2.122,1.918,2.202,1.94,2.28,1.964c0.102,0.03,0.202,0.067,0.305,0.092
		c0.118,0.03,0.239,0.037,0.36,0.033C3.294,2.079,3.62,1.975,3.941,1.84c0.264-0.111,0.517-0.245,0.769-0.382
		c0.249-0.134,0.493-0.276,0.752-0.384c0.093-0.038,0.186-0.07,0.287-0.078c0.067-0.004,0.131,0.008,0.193,0.041
		c0.172,0.09,0.299,0.234,0.389,0.411C6.397,1.578,6.45,1.715,6.51,1.849c0.03,0.067,0.06,0.134,0.091,0.201
		C6.69,2.229,6.857,2.291,7.033,2.265C7.045,2.262,7.06,2.262,7.073,2.26c0.021,0.035,0.019,0.073,0.019,0.108
		c0.001,0.21,0.002,0.419,0.005,0.629c0,0.122,0.004,0.242,0.006,0.363c0,0.045-0.001,0.047-0.043,0.062
		C6.902,3.479,6.743,3.534,6.576,3.558C6.514,3.566,6.45,3.568,6.387,3.563c-0.074-0.004-0.134-0.048-0.189-0.1
		C6.162,3.428,6.127,3.391,6.09,3.355c-0.042-0.04-0.059-0.042-0.109-0.012C5.944,3.364,5.907,3.387,5.87,3.407
		C5.78,3.455,5.684,3.493,5.583,3.506C5.469,3.522,5.365,3.501,5.289,3.398C5.27,3.373,5.256,3.344,5.242,3.316
		C5.222,3.28,5.218,3.275,5.18,3.287C5.107,3.308,5.036,3.332,4.963,3.351c-0.077,0.02-0.155,0.033-0.237,0.022
		c-0.121-0.015-0.205-0.083-0.263-0.19C4.448,3.155,4.437,3.128,4.425,3.1C4.406,3.059,4.403,3.058,4.362,3.068
		c-0.077,0.02-0.153,0.044-0.23,0.055C4.068,3.132,4.002,3.131,3.939,3.121c-0.128-0.023-0.198-0.112-0.21-0.249
		c-0.002-0.024-0.005-0.046-0.008-0.07C3.72,2.793,3.718,2.785,3.713,2.768z"/>
	<path fill-rule="evenodd" clip-rule="evenodd" fill="#50A4EF" d="M6.415,4.811c-0.069-0.006-0.139-0.012-0.202-0.05
		C6.173,4.736,6.13,4.717,6.09,4.693C5.964,4.617,5.827,4.575,5.682,4.567C5.571,4.559,5.46,4.556,5.349,4.556
		c-0.044,0-0.089,0.007-0.131,0.019c-0.139,0.034-0.202,0.18-0.14,0.317c0.025,0.056,0.067,0.1,0.113,0.138
		c0.126,0.104,0.27,0.175,0.418,0.236c0.236,0.097,0.478,0.156,0.727,0.198c0.194,0.031,0.388,0.049,0.585,0.054
		c0.154,0.004,0.308,0.007,0.46,0.022c0.245,0.024,0.486,0.072,0.722,0.144c0.172,0.052,0.34,0.115,0.498,0.201
		c0.141,0.077,0.272,0.172,0.373,0.305c0.104,0.136,0.171,0.289,0.166,0.467C9.138,6.786,9.097,6.907,9.034,7.02
		c-0.081,0.145-0.19,0.264-0.313,0.369C8.543,7.542,8.344,7.662,8.135,7.764C8.111,7.776,8.092,7.773,8.068,7.761
		C7.98,7.71,7.891,7.663,7.8,7.615C7.781,7.605,7.765,7.598,7.77,7.573c0.006-0.028-0.006-0.064,0.03-0.081
		c0.025-0.013,0.052-0.023,0.079-0.036c0.127-0.056,0.254-0.112,0.375-0.188c0.093-0.062,0.179-0.132,0.245-0.227
		c0.043-0.061,0.073-0.126,0.088-0.2c0.021-0.114-0.007-0.219-0.064-0.316c-0.061-0.105-0.147-0.185-0.246-0.25
		C8.072,6.143,7.851,6.064,7.614,6.039C7.47,6.023,7.327,6.018,7.185,6.006C7.047,5.994,6.91,5.977,6.771,5.965
		C6.615,5.953,6.46,5.931,6.307,5.897C5.897,5.807,5.51,5.656,5.164,5.402c-0.135-0.1-0.258-0.214-0.354-0.358
		C4.763,4.976,4.726,4.9,4.709,4.815C4.686,4.696,4.716,4.597,4.794,4.511c0.07-0.08,0.161-0.127,0.255-0.166
		C5.171,4.293,5.3,4.263,5.43,4.246c0.113-0.014,0.227-0.021,0.341-0.034c0.11-0.012,0.22-0.03,0.33-0.037
		c0.097-0.006,0.195-0.002,0.292,0C6.45,4.177,6.508,4.182,6.561,4.214C6.687,4.29,6.786,4.394,6.848,4.53
		c0.058,0.124,0.038,0.146-0.069,0.2C6.693,4.771,6.602,4.795,6.507,4.803C6.477,4.806,6.447,4.809,6.415,4.811z"/>
	<path fill-rule="evenodd" clip-rule="evenodd" fill="#50A4EF" d="M7.653,5.425C7.601,5.419,7.554,5.413,7.506,5.408
		C7.444,5.4,7.381,5.394,7.319,5.387C7.271,5.383,7.265,5.378,7.265,5.33C7.263,5.206,7.263,5.084,7.263,4.96
		C7.259,4.612,7.254,4.263,7.25,3.914c-0.002-0.26-0.006-0.52-0.01-0.78c-0.004-0.243-0.007-0.485-0.01-0.727
		C7.226,2.164,7.223,1.923,7.22,1.68C7.216,1.503,7.211,1.325,7.211,1.148c0-0.046-0.016-0.075-0.051-0.103
		C6.875,0.811,6.91,0.348,7.229,0.167c0.283-0.16,0.658-0.005,0.722,0.371c0.035,0.205-0.031,0.379-0.187,0.509
		c-0.034,0.027-0.047,0.056-0.047,0.1C7.714,1.424,7.71,1.703,7.707,1.981c-0.003,0.242-0.008,0.484-0.01,0.727
		c-0.004,0.255-0.008,0.51-0.011,0.764C7.682,3.729,7.68,3.985,7.675,4.243c-0.003,0.273-0.006,0.546-0.01,0.818
		c-0.001,0.11-0.005,0.22-0.008,0.331C7.657,5.401,7.655,5.411,7.653,5.425z"/>
	<path fill-rule="evenodd" clip-rule="evenodd" fill="#50A4EF" d="M6.849,6.123C6.812,6.139,6.785,6.149,6.758,6.162
		C6.616,6.229,6.489,6.318,6.403,6.46C6.299,6.633,6.298,6.808,6.397,6.981C6.47,7.109,6.575,7.199,6.693,7.276
		C6.805,7.35,6.927,7.403,7.049,7.456C7.266,7.548,7.482,7.638,7.7,7.729c0.211,0.087,0.402,0.207,0.562,0.378
		c0.108,0.116,0.192,0.249,0.232,0.408c0.05,0.201,0.023,0.395-0.056,0.582c-0.102,0.233-0.258,0.419-0.445,0.58
		C7.958,9.709,7.92,9.739,7.878,9.772c-0.04-0.027-0.079-0.051-0.117-0.079C7.753,9.687,7.746,9.669,7.746,9.657
		c-0.001-0.059,0-0.116,0-0.175c0-0.026,0.016-0.037,0.031-0.053c0.099-0.085,0.191-0.18,0.268-0.29
		c0.049-0.072,0.09-0.147,0.113-0.235C8.197,8.762,8.174,8.629,8.1,8.505c-0.062-0.1-0.145-0.178-0.236-0.245
		C7.712,8.148,7.545,8.07,7.374,8.003C7.229,7.945,7.082,7.891,6.938,7.83c-0.258-0.111-0.5-0.248-0.719-0.433
		C6.08,7.28,5.959,7.146,5.875,6.979C5.822,6.876,5.791,6.769,5.789,6.653C5.786,6.479,5.846,6.328,5.95,6.196
		c0.045-0.057,0.098-0.105,0.147-0.159c0.023-0.023,0.051-0.026,0.081-0.021C6.32,6.044,6.461,6.074,6.605,6.097
		C6.682,6.111,6.76,6.114,6.849,6.123z"/>
	<path fill-rule="evenodd" clip-rule="evenodd" fill="#50A4EF" d="M8.061,5.517c0.111-0.008,0.211-0.015,0.311-0.024
		c0.172-0.018,0.342-0.046,0.51-0.087c0.202-0.048,0.398-0.114,0.587-0.206c0.094-0.045,0.184-0.096,0.264-0.165
		c0.034-0.029,0.065-0.063,0.094-0.099c0.051-0.064,0.06-0.141,0.04-0.22C9.848,4.651,9.809,4.606,9.749,4.588
		C9.702,4.571,9.652,4.559,9.604,4.557C9.432,4.548,9.259,4.556,9.09,4.592C9.022,4.606,8.957,4.636,8.893,4.666
		C8.832,4.693,8.773,4.727,8.715,4.761c-0.065,0.04-0.137,0.05-0.207,0.048c-0.113-0.001-0.225-0.021-0.33-0.068
		C8.146,4.727,8.113,4.708,8.082,4.688C8.057,4.671,8.047,4.644,8.055,4.614c0.006-0.026,0.012-0.053,0.022-0.077
		c0.064-0.136,0.16-0.242,0.284-0.319C8.402,4.194,8.445,4.181,8.493,4.18c0.087-0.003,0.174-0.011,0.26-0.009
		c0.095,0.002,0.188,0.015,0.28,0.024c0.096,0.008,0.19,0.02,0.285,0.027c0.2,0.02,0.397,0.049,0.583,0.132
		c0.065,0.028,0.13,0.067,0.188,0.11c0.131,0.102,0.169,0.247,0.117,0.409c-0.034,0.104-0.094,0.193-0.162,0.273
		C9.907,5.307,9.746,5.428,9.57,5.533C9.35,5.665,9.114,5.762,8.87,5.835c-0.03,0.01-0.058,0.01-0.087-0.009
		C8.57,5.688,8.338,5.6,8.1,5.529C8.09,5.527,8.081,5.523,8.061,5.517z"/>
	<path fill-rule="evenodd" clip-rule="evenodd" fill="#50A4EF" d="M7.791,11.379c-0.044-0.027-0.071-0.059-0.066-0.116
		c0.004-0.051,0.002-0.102,0-0.153c0-0.03,0.01-0.052,0.031-0.076c0.044-0.049,0.091-0.103,0.128-0.16
		c0.072-0.107,0.074-0.225,0.02-0.344c-0.035-0.078-0.085-0.147-0.141-0.212c-0.135-0.151-0.292-0.272-0.458-0.381
		C7.185,9.859,7.06,9.786,6.95,9.69C6.77,9.537,6.615,9.361,6.51,9.14c-0.062-0.134-0.1-0.274-0.1-0.427
		c0.001-0.136,0.033-0.261,0.095-0.379C6.582,8.187,6.693,8.07,6.819,7.967C6.836,7.952,6.854,7.952,6.875,7.96
		c0.084,0.036,0.168,0.071,0.253,0.104c0.026,0.01,0.039,0.025,0.035,0.055c-0.001,0.007-0.001,0.012,0,0.017
		c0.008,0.045-0.01,0.074-0.047,0.096c-0.08,0.052-0.15,0.113-0.213,0.187c-0.059,0.07-0.104,0.146-0.126,0.238
		C6.749,8.772,6.763,8.886,6.81,8.994c0.049,0.114,0.121,0.21,0.203,0.298c0.113,0.124,0.241,0.23,0.376,0.326
		C7.491,9.69,7.597,9.761,7.704,9.83c0.152,0.1,0.291,0.215,0.398,0.369c0.082,0.12,0.132,0.253,0.137,0.401
		c0.002,0.088-0.016,0.173-0.045,0.255c-0.029,0.077-0.068,0.15-0.115,0.217c-0.071,0.104-0.158,0.195-0.25,0.279
		C7.818,11.361,7.804,11.37,7.791,11.379z"/>
	<path fill-rule="evenodd" clip-rule="evenodd" fill="#50A4EF" d="M7.706,12.937c0.001-0.026,0.003-0.052,0.003-0.079
		c0.001-0.07,0-0.141,0.002-0.212c0.003-0.092,0.005-0.183,0.011-0.274c0.012-0.213-0.023-0.411-0.142-0.587
		c-0.051-0.075-0.117-0.132-0.184-0.188c-0.081-0.067-0.165-0.136-0.246-0.204c-0.138-0.116-0.263-0.246-0.354-0.408
		c-0.062-0.111-0.1-0.23-0.104-0.359c-0.004-0.126,0.031-0.246,0.092-0.356c0.065-0.114,0.15-0.21,0.247-0.294
		C7.05,9.958,7.066,9.953,7.086,9.97c0.002,0.001,0.007,0.003,0.009,0.005c0.107,0.072,0.086,0.03,0.089,0.163
		c0.001,0.049,0.011,0.101-0.003,0.144c-0.013,0.045-0.054,0.077-0.079,0.118c-0.03,0.048-0.062,0.096-0.084,0.148
		c-0.048,0.109-0.04,0.217,0.021,0.319c0.057,0.097,0.135,0.173,0.216,0.243c0.115,0.103,0.235,0.198,0.352,0.298
		c0.15,0.129,0.261,0.287,0.308,0.487c0.03,0.121,0.032,0.245,0.02,0.372c-0.021,0.23-0.092,0.441-0.205,0.64
		c-0.006,0.011-0.011,0.02-0.018,0.03C7.71,12.937,7.708,12.937,7.706,12.937z"/>
	<path fill-rule="evenodd" clip-rule="evenodd" fill="#50A4EF" d="M7.631,7.54C7.616,7.535,7.604,7.532,7.593,7.528
		C7.511,7.494,7.428,7.461,7.346,7.427C7.293,7.405,7.293,7.404,7.292,7.344C7.288,7.007,7.284,6.669,7.281,6.331
		c-0.001-0.054,0-0.107,0-0.167c0.117,0.002,0.237,0.01,0.36,0.026c0.002,0.017,0.005,0.032,0.005,0.048
		C7.643,6.665,7.638,7.092,7.635,7.518C7.635,7.522,7.633,7.527,7.631,7.54z"/>
	<path fill-rule="evenodd" clip-rule="evenodd" fill="#50A4EF" d="M7.302,8.136c0.022,0.007,0.034,0.008,0.044,0.013
		c0.076,0.036,0.152,0.072,0.229,0.106c0.038,0.017,0.05,0.038,0.049,0.082C7.621,8.585,7.618,8.831,7.614,9.08
		C7.613,9.233,7.61,9.387,7.607,9.54C7.606,9.553,7.603,9.566,7.601,9.585c-0.014-0.007-0.025-0.01-0.035-0.018
		C7.493,9.515,7.42,9.461,7.347,9.408C7.323,9.391,7.314,9.37,7.314,9.339c0.002-0.059,0-0.118,0-0.178
		C7.31,8.844,7.306,8.525,7.302,8.207C7.302,8.186,7.302,8.164,7.302,8.136z"/>
	<path fill-rule="evenodd" clip-rule="evenodd" fill="#50A4EF" d="M7.637,13.407c-0.32-0.257-0.545-0.584-0.625-1.007
		c-0.031-0.158-0.037-0.319-0.005-0.479c0.023-0.116,0.072-0.217,0.135-0.312c0.003-0.007,0.01-0.012,0.017-0.018
		c0.032,0.011,0.046,0.031,0.046,0.067c0,0.185,0.006,0.369,0,0.554c-0.008,0.253,0.053,0.488,0.155,0.714
		c0.074,0.163,0.162,0.314,0.264,0.459C7.628,13.393,7.632,13.399,7.637,13.407z"/>
	<path fill-rule="evenodd" clip-rule="evenodd" fill="#50A4EF" d="M7.584,11.204c-0.023-0.019-0.038-0.03-0.052-0.042
		c-0.057-0.05-0.114-0.1-0.172-0.146c-0.02-0.017-0.028-0.034-0.026-0.061c0-0.003,0-0.007,0-0.011
		c-0.003-0.248-0.007-0.497-0.01-0.747c0-0.02,0-0.039,0-0.066c0.018,0.011,0.031,0.016,0.042,0.023
		c0.065,0.052,0.128,0.106,0.193,0.158c0.026,0.021,0.037,0.047,0.037,0.084c-0.002,0.206-0.001,0.411-0.004,0.617
		C7.592,11.072,7.589,11.131,7.584,11.204z"/>
	<path fill-rule="evenodd" clip-rule="evenodd" fill="#50A4EF" d="M7.349,11.746c0.064,0.048,0.111,0.1,0.146,0.162
		c0.054,0.098,0.085,0.199,0.082,0.314c-0.004,0.184-0.001,0.368-0.003,0.553c0,0.076-0.004,0.151-0.008,0.237
		C7.554,13,7.548,12.996,7.545,12.989c-0.083-0.159-0.153-0.325-0.182-0.504c-0.012-0.07-0.014-0.145-0.016-0.216
		c-0.003-0.16-0.001-0.321-0.003-0.482C7.344,11.777,7.347,11.767,7.349,11.746z"/>
	<path fill-rule="evenodd" clip-rule="evenodd" fill="#50A4EF" d="M7.368,13.368c0.062,0.057,0.121,0.109,0.178,0.161
		c0.007,0.006,0.013,0.019,0.013,0.027c-0.006,0.103-0.013,0.205-0.054,0.301c-0.005,0.012-0.01,0.023-0.018,0.032
		c-0.017,0.022-0.035,0.024-0.049-0.002c-0.016-0.031-0.031-0.064-0.039-0.099c-0.014-0.063-0.025-0.127-0.029-0.191
		C7.364,13.525,7.368,13.45,7.368,13.368z"/>
</g>
</svg>
